# xmcd
#
# Track frame offsets:
#	182
#	3615
#	23527
#	35885
#	49510
#	65447
#	79927
#	103612
#	121327
#	136982
#
# Disc length: 1893 seconds
#
# Revision: 3
# Processed by: cddbd v1.5.2PL0 Copyright (c) Steve Scherf et al.
# Submitted via: audiograbber 1.83.01
#
DISCID=7e07630a
DTITLE=Various Country Artists - New Country_Rodeo 1995
DYEAR=1995
DGENRE=Country
TTITLE0=John McEuen - The Wild West Theme
TTITLE1=The Smokin' Armadillos - I'm A Cowboy
TTITLE2=Chris Ledoux - Dallas Days And Ft Worth Nights
TTITLE3=Don Walser - Cowpoke
TTITLE4=Big Rig Jacknife - All Night Truckstop
TTITLE5=Brooks and Dunn - Tonight The Bottle Let Me Down
TTITLE6=Ray Wylie Hubbard - The Dust Of The Chase
TTITLE7=Kinky Friedman And The Texas Jewboys - Wild Man From Borneo
TTITLE8=Skip Gorman - Where The Old Red River Flows
TTITLE9=John McEuen - Guitar Wild West Theme
EXTD=
EXTT0=
EXTT1=
EXTT2=
EXTT3=
EXTT4=
EXTT5=
EXTT6=
EXTT7=
EXTT8=
EXTT9=
PLAYORDER=
